<?xml version="1.0" encoding="UTF-8" standalone="no"?>
<!-- Created with Inkscape (http://www.inkscape.org/) -->

<svg
   version="1.1"
   id="svg1"
   width="128"
   height="128"
   viewBox="0 0 128 128"
   sodipodi:docname="image.svg"
   inkscape:version="1.3.2 (091e20e, 2023-11-25, custom)"
   xmlns:inkscape="http://www.inkscape.org/namespaces/inkscape"
   xmlns:sodipodi="http://sodipodi.sourceforge.net/DTD/sodipodi-0.dtd"
   xmlns="http://www.w3.org/2000/svg"
   xmlns:svg="http://www.w3.org/2000/svg">
  <defs
     id="defs1" />
  <sodipodi:namedview
     id="namedview1"
     pagecolor="#ffffff"
     bordercolor="#000000"
     borderopacity="0.25"
     inkscape:showpageshadow="2"
     inkscape:pageopacity="0.0"
     inkscape:pagecheckerboard="0"
     inkscape:deskcolor="#d1d1d1"
     inkscape:document-units="mm"
     inkscape:zoom="2.8284271"
     inkscape:cx="77.074639"
     inkscape:cy="70.533901"
     inkscape:window-width="1600"
     inkscape:window-height="837"
     inkscape:window-x="-8"
     inkscape:window-y="-8"
     inkscape:window-maximized="1"
     inkscape:current-layer="g1" />
  <g
     inkscape:groupmode="layer"
     inkscape:label="Image"
     id="g1">
    <path
       style="fill:#000000"
       d="M 59.42714,108.27966 C 48.266139,106.86275 39.005249,102.46107 31.610465,95.05845 23.697005,87.136601 19.493313,77.083375 19.493313,66.080005 c 0,-11.003371 4.203692,-21.056596 12.117152,-28.978445 6.55475,-6.561698 14.513927,-10.736543 24.154009,-12.669557 4.028247,-0.807738 13.840609,-0.807738 17.868857,0 9.640081,1.933014 17.599259,6.107859 24.154008,12.669557 7.913461,7.921849 12.117151,17.975074 12.117151,28.978445 0,11.00337 -4.20369,21.056596 -12.117151,28.978445 -6.427572,6.43439 -14.037978,10.49777 -23.413375,12.50097 -2.903634,0.62041 -12.203325,1.06853 -14.946824,0.72024 z m 13.960364,-4.25845 c 8.834443,-1.9049 15.434572,-5.437414 21.532123,-11.524403 5.478673,-5.469182 8.490153,-10.714945 10.388973,-18.096802 0.79782,-3.101588 0.90545,-4.090562 0.90545,-8.32 0,-4.229438 -0.10763,-5.218412 -0.90545,-8.32 -1.89882,-7.381857 -4.9103,-12.62762 -10.388973,-18.096802 -6.127087,-6.116474 -12.593678,-9.56697 -21.695563,-11.576493 -4.415913,-0.97495 -12.63441,-0.97495 -17.050324,0 -9.101884,2.009523 -15.568475,5.460019 -21.695562,11.576493 -5.478672,5.469182 -8.490149,10.714945 -10.388976,18.096802 -0.797818,3.101588 -0.905446,4.090562 -0.905446,8.32 0,4.229438 0.107628,5.218412 0.905446,8.32 1.170774,4.551489 2.829043,8.367526 5.162424,11.879861 6.612549,9.953577 17.494602,16.600024 30.020719,18.335784 3.314333,0.45928 10.663712,0.14976 14.115159,-0.59444 z M 58.164196,98.835885 c -6.845118,-1.136671 -12.878033,-5.037324 -15.118531,-9.775066 -0.936914,-1.981192 -1.031316,-2.459083 -1.031316,-5.220814 0,-2.761731 0.0944,-3.239623 1.031316,-5.220815 1.799805,-3.805855 5.514388,-6.77565 10.706753,-8.560007 11.839614,-4.068686 25.976321,-0.04088 30.043715,8.560007 0.936914,1.981192 1.031317,2.459084 1.031317,5.220815 0,2.761731 -0.0944,3.239622 -1.031317,5.220814 -2.289508,4.84138 -8.290593,8.654838 -15.422972,9.800706 -2.458784,0.395021 -7.75583,0.381718 -10.208965,-0.02564 z m 8.930962,-3.488803 c 4.820472,-0.761543 9.496929,-2.984258 11.795667,-5.606467 2.668562,-3.044074 3.200208,-6.550486 1.469865,-9.69434 -2.241318,-4.072244 -7.322194,-6.900323 -13.995813,-7.790243 -2.169195,-0.28926 -3.529872,-0.290885 -5.767017,-0.0069 -12.631302,1.603499 -18.933648,10.320055 -12.646886,17.49147 3.740174,4.26648 12.110247,6.717696 19.144184,5.606467 z M 44.685456,60.298321 c -2.13078,-0.657039 -4.443015,-2.864751 -5.574135,-5.322162 -0.793684,-1.724314 -0.928015,-2.409876 -0.928015,-4.736154 0,-2.326278 0.134331,-3.01184 0.928015,-4.736154 2.754452,-5.984175 9.513257,-7.624241 14.163393,-3.436836 2.364815,2.129495 3.433703,4.67369 3.433703,8.17299 0,2.326278 -0.134331,3.01184 -0.928014,4.736154 -2.111509,4.58735 -6.559087,6.720819 -11.094947,5.322162 z m 29.758219,-2.217959 c -4.866879,-0.983111 -8.525096,-3.318987 -9.310682,-5.945137 -0.567591,-1.897409 0.02197,-3.447322 1.983031,-5.213239 5.450417,-4.908051 18.789908,-4.908051 24.240325,0 2.949354,2.655867 2.949354,5.260171 0,7.916038 -3.425034,3.084211 -10.746735,4.487859 -16.912674,3.242338 z M 31.390949,25.05417 c -0.55733,-0.107514 -0.718877,-0.357102 -0.718877,-1.110658 0,-0.797661 0.100276,-0.931823 0.559127,-0.74807 0.307519,0.123151 1.34989,0.297875 2.31638,0.388277 2.256639,0.211076 3.514508,-0.617891 3.514508,-2.316148 v -1.085982 l -1.132472,0.669219 c -0.861082,0.508845 -1.476722,0.630357 -2.568972,0.507053 -2.521573,-0.284662 -3.760165,-2.058928 -3.771457,-5.402559 -0.0061,-1.793316 0.130968,-2.333776 0.878534,-3.465191 1.106922,-1.675285 2.6946,-2.409724 4.506186,-2.0845 0.709186,0.127316 1.900475,0.21278 2.647308,0.189919 l 1.357878,-0.04157 v 5.436545 c 0,6.589309 -0.3158,7.747802 -2.366257,8.680479 -1.229973,0.559469 -3.459843,0.723097 -5.221886,0.383182 z m 4.563148,-5.677837 1.10799,-0.463671 v -3.224249 c 0,-3.166577 -0.01466,-3.229831 -0.819551,-3.536328 -1.461346,-0.556471 -2.628803,-0.36226 -3.7263,0.619887 -0.987369,0.883592 -1.041528,1.048306 -1.043418,3.173352 -0.0017,1.933047 0.104561,2.355104 0.772576,3.068033 0.887841,0.947534 2.04193,1.060486 3.708703,0.362976 z M 8.7862708,21.327027 C 7.6701115,20.991836 7.4954056,20.810129 7.406701,19.892167 L 7.3051341,18.8411 8.3025056,19.357667 c 1.5731173,0.814762 3.9850154,0.989481 4.9467484,0.358345 1.636477,-1.073937 0.678127,-2.483869 -1.979411,-2.912124 C 10.527103,16.684197 9.4487877,16.269659 8.8735874,15.882691 8.002846,15.296897 7.8110544,14.947713 7.7279271,13.796853 7.613422,12.21158 8.1756954,11.370507 9.8143863,10.67584 c 1.2266227,-0.519986 2.6895777,-0.553487 4.3235217,-0.09901 1.079417,0.300237 1.198128,0.439319 1.198128,1.403719 v 1.070463 l -1.185808,-0.605504 c -1.521136,-0.776731 -3.323179,-0.778034 -4.2786947,-0.0031 -0.6437904,0.522124 -0.6942857,0.709014 -0.3788881,1.402318 0.2790327,0.613367 0.7606618,0.888958 2.0652658,1.181755 2.669683,0.599169 3.452613,0.993657 3.973207,2.001948 1.606229,3.110958 -2.335145,5.622855 -6.7448472,4.298592 z M 1.5975039,20.000005 c 0,-1.432381 0.00592,-1.44 1.1182526,-1.44 1.112336,0 1.1182526,0.0076 1.1182526,1.44 0,1.432381 -0.00592,1.44 -1.1182526,1.44 -1.1123359,0 -1.1182526,-0.0076 -1.1182526,-1.44 z M 19.518163,16.415599 c -1.10753,-2.780577 -2.089698,-5.246169 -2.182594,-5.479095 -0.123613,-0.309944 0.107348,-0.395748 0.861356,-0.32 1.003607,0.100823 1.070162,0.206974 2.572884,4.103501 0.848444,2.2 1.639696,4 1.758337,4 0.118642,0 0.901256,-1.8 1.739144,-4 1.464361,-3.844902 1.561566,-4.003832 2.506942,-4.098825 l 0.983511,-0.09883 -2.154841,5.378825 c -2.076012,5.182056 -2.18989,5.382322 -3.112944,5.474419 -0.955876,0.09537 -0.962783,0.08385 -2.971795,-4.96 z"
       id="path1" />
  </g>
</svg>
